<mxfile host="app.diagrams.net" modified="2023-12-01T13:07:32.645Z" agent="Mozilla/5.0 (Windows NT 10.0; Win64; x64) AppleWebKit/537.36 (KHTML, like Gecko) Chrome/119.0.0.0 Safari/537.36" version="22.1.5" etag="BFMDg2WD_AciQqidwTvz" type="github">
  <diagram name="페이지-1" id="qdeXQNk1gVqfnKT2wiDI">
    <mxGraphModel>
      <root>
        <mxCell id="0" />
        <mxCell id="1" parent="0" />
      </root>
    </mxGraphModel>
  </diagram>
</mxfile>
